<svg width="182" height="35" viewBox="0 0 182 35" fill="none" xmlns="http://www.w3.org/2000/svg">
<path d="M182 7.30929C182 8.2289 181.723 9.12785 181.203 9.89248C180.684 10.6571 179.945 11.2531 179.082 11.605C178.218 11.9569 177.267 12.049 176.35 11.8696C175.433 11.6902 174.591 11.2473 173.93 10.5971C173.268 9.9468 172.818 9.11832 172.636 8.21638C172.453 7.31445 172.547 6.37956 172.905 5.52996C173.263 4.68035 173.869 3.95418 174.646 3.44327C175.423 2.93237 176.337 2.65967 177.272 2.65967C177.894 2.65891 178.509 2.77865 179.083 3.01204C179.656 3.24544 180.178 3.5879 180.617 4.01981C181.056 4.45172 181.404 4.96459 181.642 5.52905C181.879 6.09352 182.001 6.69848 182 7.30929Z" fill="#ED1C24"/>
<path d="M135.221 9.18311C132.627 9.18311 130.09 9.93984 127.933 11.3576C125.776 12.7754 124.094 14.7905 123.101 17.1481C122.108 19.5058 121.848 22.1001 122.355 24.603C122.861 27.1059 124.11 29.4049 125.945 31.2094C127.78 33.0138 130.117 34.2427 132.662 34.7406C135.207 35.2384 137.845 34.9829 140.242 34.0063C142.639 33.0298 144.688 31.376 146.129 29.2541C147.571 27.1323 148.34 24.6377 148.34 22.0858C148.335 18.6654 146.951 15.3866 144.492 12.968C142.033 10.5494 138.699 9.18833 135.221 9.18311ZM142.406 22.0858C142.405 23.4837 141.983 24.85 141.192 26.0119C140.402 27.1737 139.279 28.079 137.966 28.6132C136.652 29.1474 135.207 29.2866 133.813 29.0132C132.419 28.7397 131.139 28.0659 130.135 27.0769C129.13 26.0879 128.446 24.8282 128.169 23.457C127.893 22.0858 128.036 20.6647 128.58 19.3734C129.125 18.0821 130.046 16.9786 131.228 16.2024C132.41 15.4262 133.8 15.0121 135.221 15.0126C137.127 15.0156 138.954 15.7621 140.301 17.0881C141.648 18.4141 142.405 20.2114 142.406 22.0858Z" fill="#ED1C24"/>
<path d="M161.467 9.18311C158.873 9.18311 156.336 9.93984 154.179 11.3576C152.022 12.7754 150.34 14.7905 149.347 17.1481C148.354 19.5058 148.095 22.1001 148.601 24.603C149.107 27.1059 150.356 29.4049 152.191 31.2094C154.026 33.0138 156.363 34.2427 158.908 34.7406C161.453 35.2384 164.091 34.9829 166.488 34.0063C168.885 33.0298 170.934 31.376 172.375 29.2541C173.817 27.1323 174.586 24.6377 174.586 22.0858C174.581 18.6653 173.198 15.3863 170.738 12.9676C168.279 10.549 164.945 9.18803 161.467 9.18311ZM168.652 22.0858C168.651 23.4837 168.229 24.85 167.438 26.0119C166.648 27.1737 165.525 28.079 164.212 28.6132C162.898 29.1474 161.453 29.2866 160.059 29.0132C158.665 28.7397 157.385 28.0659 156.381 27.0769C155.376 26.0879 154.692 24.8282 154.416 23.457C154.139 22.0858 154.282 20.6647 154.826 19.3734C155.371 18.0821 156.292 16.9786 157.474 16.2024C158.657 15.4262 160.046 15.0121 161.467 15.0126C163.373 15.0156 165.2 15.7621 166.547 17.0881C167.894 18.4141 168.651 20.2114 168.652 22.0858Z" fill="#ED1C24"/>
<path d="M39.3621 9.18311C36.7672 9.18196 34.2302 9.93771 32.072 11.3548C29.9139 12.7718 28.2315 14.7866 27.2376 17.1441C26.2438 19.5017 25.9831 22.0962 26.4887 24.5994C26.9942 27.1027 28.2432 29.4023 30.0776 31.2073C31.9121 33.0124 34.2497 34.2418 36.7946 34.7401C39.3396 35.2385 41.9777 34.9833 44.3752 34.0069C46.7727 33.0305 48.8219 31.3767 50.2637 29.2548C51.7055 27.1328 52.475 24.638 52.475 22.0858C52.4694 18.6665 51.0863 15.3887 48.6285 12.9704C46.1707 10.552 42.8387 9.19018 39.3621 9.18311ZM46.5455 22.0858C46.5446 23.4838 46.1222 24.8501 45.3318 26.012C44.5413 27.1739 43.4183 28.0791 42.1048 28.6133C40.7912 29.1475 39.3462 29.2866 37.9522 29.0131C36.5583 28.7395 35.2781 28.0656 34.2736 27.0765C33.2691 26.0874 32.5854 24.8276 32.3088 23.4563C32.0323 22.085 32.1754 20.6639 32.7201 19.3726C33.2647 18.0813 34.1865 16.9779 35.3687 16.2018C36.551 15.4257 37.9407 15.0119 39.3621 15.0126C41.2677 15.0156 43.0943 15.7621 44.441 17.0882C45.7877 18.4142 46.5446 20.2116 46.5455 22.0858Z" fill="#ED1C24"/>
<path d="M13.1189 9.18311C10.5242 9.18311 7.9878 9.93984 5.83042 11.3576C3.67303 12.7754 1.99156 14.7905 0.99862 17.1481C0.00568418 19.5058 -0.254113 22.1001 0.252081 24.603C0.758275 27.1059 2.00773 29.4049 3.84243 31.2094C5.67714 33.0138 8.01469 34.2427 10.5595 34.7406C13.1043 35.2384 15.7421 34.9829 18.1392 34.0063C20.5364 33.0298 22.5853 31.376 24.0268 29.2541C25.4683 27.1323 26.2377 24.6377 26.2377 22.0858C26.2324 18.6654 24.8485 15.3866 22.3894 12.968C19.9303 10.5494 16.5966 9.18833 13.1189 9.18311ZM20.3071 22.0858C20.3066 23.4848 19.8843 24.8522 19.0936 26.0152C18.303 27.1782 17.1794 28.0844 15.865 28.6193C14.5507 29.1542 13.1045 29.2937 11.7095 29.0203C10.3145 28.7468 9.03331 28.0726 8.02791 27.0829C7.0225 26.0933 6.33807 24.8326 6.06117 23.4604C5.78427 22.0882 5.92733 20.666 6.47227 19.3737C7.01721 18.0814 7.93954 16.9771 9.12263 16.2004C10.3057 15.4237 11.6964 15.0096 13.1189 15.0102C15.0251 15.0127 16.8526 15.7588 18.2002 17.0849C19.5478 18.4109 20.3055 20.2086 20.3071 22.0835" fill="#ED1C24"/>
<path d="M120.501 3.65056e-06H117.946C117.724 -0.000454775 117.503 0.0422669 117.297 0.125729C117.091 0.209192 116.903 0.331761 116.745 0.486438C116.587 0.641115 116.462 0.824871 116.376 1.02721C116.291 1.22956 116.246 1.44652 116.246 1.66573L116.227 11.2963L115.89 11.0917C113.415 9.60342 110.508 8.9645 107.624 9.27496C104.74 9.58541 102.042 10.8277 99.9527 12.8073C97.8634 14.787 96.5006 17.3922 96.0776 20.215C95.6547 23.0378 96.1954 25.9189 97.6153 28.4072C99.0351 30.8954 101.254 32.8503 103.924 33.9658C106.594 35.0812 109.565 35.2943 112.372 34.5716C115.178 33.8489 117.662 32.2312 119.434 29.9718C121.206 27.7125 122.166 24.939 122.163 22.0857L122.191 1.66573C122.19 1.22484 122.011 0.802213 121.695 0.490128C121.378 0.178042 120.949 0.00184487 120.501 3.65056e-06ZM116.246 22.0857C116.242 23.9614 115.482 25.7591 114.133 27.0853C112.785 28.4114 110.956 29.1579 109.049 29.1612C108.096 29.1595 107.153 28.9717 106.275 28.6086C105.396 28.2456 104.6 27.7145 103.932 27.0464C103.264 26.3782 102.737 25.5862 102.383 24.7162C102.028 23.8463 101.853 22.9158 101.867 21.9788C101.929 20.1516 102.694 18.4158 104.008 17.1228C105.322 15.8298 107.086 15.0763 108.944 15.0148H109.052C110.958 15.0188 112.784 15.7649 114.132 17.0899C115.481 18.415 116.24 20.2112 116.246 22.0857Z" fill="#ED1C24"/>
<path d="M70.9551 17.3127L71.0461 17.415C71.7672 15.6403 72.8722 14.041 74.2845 12.7282C72.9984 11.4382 71.4342 10.4487 69.7073 9.83285C67.9804 9.217 66.1349 8.99051 64.307 9.1701C62.1027 9.39985 60.0153 10.2603 58.3031 11.6449V10.9695C58.3028 10.5861 58.1478 10.2185 57.8721 9.94735C57.5964 9.67623 57.2227 9.52378 56.8328 9.52347H53.9727C53.5746 9.52409 53.193 9.67998 52.9116 9.95695C52.6302 10.2339 52.472 10.6093 52.4717 11.0009V33.4771C52.472 33.8604 52.6268 34.2278 52.9022 34.4989C53.1776 34.77 53.5511 34.9226 53.9408 34.9232H56.8092C57.2071 34.9229 57.5886 34.7674 57.8702 34.4909C58.1518 34.2144 58.3104 33.8394 58.3114 33.4481L58.4295 21.7601C58.3908 20.0394 59.024 18.3695 60.1988 17.0939C61.3736 15.8182 63.0007 15.0338 64.7455 14.9019C65.9019 14.7822 67.0705 14.9393 68.1518 15.3599C69.233 15.7805 70.1948 16.4521 70.9551 17.3174" fill="#ED1C24"/>
<path d="M93.4456 29.5379L89.9543 27.6443C89.7475 27.5227 89.5079 27.466 89.2676 27.482C89.0272 27.498 88.7975 27.5859 88.6093 27.7339L87.9853 28.1267C86.8115 28.7961 85.4841 29.1613 84.1276 29.188L83.805 29.195C83.1592 29.1955 82.5148 29.1379 81.8797 29.023C80.8245 28.8233 79.8287 28.3923 78.9663 27.762C78.1038 27.1317 77.3969 26.3183 76.8981 25.3823L76.5731 24.6174L96.1024 24.6256C95.8535 23.3867 95.7878 22.119 95.9074 20.8617C95.9519 20.412 96.0209 19.965 96.1142 19.5226C95.4903 16.5195 93.8022 13.8319 91.3511 11.9389C88.8999 10.0459 85.8449 9.07047 82.7307 9.18653C79.3732 9.34978 76.204 10.7609 73.8641 13.1346C71.5241 15.5083 70.188 18.6674 70.1259 21.973C70.0878 25.1683 71.2607 28.2631 73.4162 30.6543C75.5716 33.0454 78.5551 34.5615 81.7851 34.9071L82.5049 34.9617C82.8973 34.9884 83.2873 35 83.6986 35C83.8534 35 83.9976 35 84.1536 34.9884C87.2144 35.0121 90.1945 34.0239 92.6159 32.1824L92.6525 32.1603C92.689 32.1424 92.7232 32.1201 92.7542 32.094L93.6796 31.2734C93.8058 31.1627 93.9027 31.0235 93.962 30.8678C94.0213 30.712 94.0412 30.5445 94.0199 30.3795C93.9988 30.2046 93.9356 30.0373 93.8355 29.8913C93.7354 29.7454 93.6013 29.625 93.4444 29.5402M83.2507 15.0195C84.6666 15.0118 86.0524 15.4213 87.2297 16.195C88.4069 16.9688 89.3217 18.0715 89.8562 19.3611L76.631 19.3459C77.1737 18.0607 78.0927 16.9631 79.2712 16.1927C80.4497 15.4224 81.8356 15.014 83.2507 15.0195Z" fill="#ED1C24"/>
</svg>
