<svg xmlns="http://www.w3.org/2000/svg" id="Bottombar_quiz_icon" data-name="Bottombar quiz icon" width="70.998" height="80" viewBox="0 0 70.998 80">
  <path id="path_11168" data-name="Path 11168" d="M11.967-.5H58.035A12.476,12.476,0,0,1,70.5,11.962V49.909A12.476,12.476,0,0,1,58.035,62.371H45.264L19.6,78.894a3.81,3.81,0,0,1-5.872-3.2V62.371H11.967A12.479,12.479,0,0,1-.5,49.909V11.962A12.479,12.479,0,0,1,11.967-.5ZM58.035,54.752a4.849,4.849,0,0,0,4.843-4.843V11.962a4.849,4.849,0,0,0-4.843-4.843H11.967a4.851,4.851,0,0,0-4.848,4.843V49.909a4.851,4.851,0,0,0,4.848,4.843h5.571a3.81,3.81,0,0,1,3.81,3.81V68.707L42.081,55.359a3.81,3.81,0,0,1,2.062-.606Z" transform="translate(0.5 0.5)" fill="#000"/>
  <path id="path_11169" data-name="Tracé 11169" d="M5.96,9.475A9,9,0,0,1,8.1,5.747a8.375,8.375,0,0,1,3.552-2.089,16.965,16.965,0,0,1,4.864-.63q5.5,0,8.092,2.719A10.1,10.1,0,0,1,27.2,13.006a13.726,13.726,0,0,1-.531,3.91,8.346,8.346,0,0,1-1.843,3.25l-3.677,4.182a4.181,4.181,0,0,0-.932,2.063A16.425,16.425,0,0,0,20,29.284H11.829V27.873a19.54,19.54,0,0,1,.453-4.661A7.892,7.892,0,0,1,14,19.962l2.978-3.379A5.012,5.012,0,0,0,18.2,14.24a11.33,11.33,0,0,0,.229-2.089,4.519,4.519,0,0,0-.552-2.369,1.878,1.878,0,0,0-1.713-.906A2.346,2.346,0,0,0,15.1,9.1a1.726,1.726,0,0,0-.751.88,7.216,7.216,0,0,0-.483,1.89,23.467,23.467,0,0,0-.177,3.25H5.226A18.964,18.964,0,0,1,5.96,9.475M20.141,39.719H11.673V31.757h8.467Z" transform="translate(18.979 11.691)" fill="#000"/>
</svg>