<svg width="745" height="286" viewBox="0 0 745 286" fill="none" xmlns="http://www.w3.org/2000/svg">
<path d="M143.971 0.344531L528.183 4.95881L694.564 19.1522C715.935 20.9752 734.246 35.1698 741.339 55.4111V55.4111C744.943 65.6974 745.379 76.8285 742.589 87.365L736.391 110.777L734.364 118.074C728.103 140.611 716.509 161.309 700.561 178.419V178.419C694.52 184.9 687.901 190.816 680.785 196.094L667.879 205.668C654.517 215.58 640.407 224.439 625.674 232.167L610.343 240.209C586.694 252.613 561.796 262.471 536.065 269.617V269.617C508.289 277.331 479.72 281.835 450.918 283.042L408.339 284.827C350.879 287.235 293.334 283.006 236.844 272.224L233.063 271.503L155.655 248.615C141.878 244.542 128.454 239.362 115.511 233.127L83.9359 217.915C57.0263 204.95 34.562 184.302 19.3801 158.579L17.1385 154.781C12.8332 147.486 9.36711 139.727 6.80656 131.653L4.69599 124.997C-1.9233 104.124 -0.973632 81.5856 7.37811 61.3432V61.3432C20.9406 28.4714 52.0427 6.1956 87.5308 3.93684L143.971 0.344531Z" fill="#fff"/>
</svg>
