<svg width="16" height="17" viewBox="0 0 16 17" fill="none" xmlns="http://www.w3.org/2000/svg">
  <mask id="mask0_922_59960" style="mask-type:alpha" maskUnits="userSpaceOnUse" x="1" y="1" width="14" height="14">
    <path fill-rule="evenodd" clip-rule="evenodd" d="M1.33398 8.00383C1.33398 4.32382 4.32065 1.33716 8.00065 1.33716C11.6807 1.33716 14.6673 4.32382 14.6673 8.00383C14.6673 11.6838 11.6807 14.6705 8.00065 14.6705C4.32065 14.6705 1.33398 11.6838 1.33398 8.00383ZM8.66732 8.67049H10.6673C11.034 8.67049 11.334 8.37049 11.334 8.00382C11.334 7.63716 11.034 7.33716 10.6673 7.33716H8.66732V5.33716C8.66732 4.97049 8.36732 4.67049 8.00065 4.67049C7.63398 4.67049 7.33398 4.97049 7.33398 5.33716V7.33716H5.33398C4.96732 7.33716 4.66732 7.63716 4.66732 8.00382C4.66732 8.37049 4.96732 8.67049 5.33398 8.67049H7.33398V10.6705C7.33398 11.0372 7.63398 11.3372 8.00065 11.3372C8.36732 11.3372 8.66732 11.0372 8.66732 10.6705V8.67049Z" fill="black" />
  </mask>
  <g mask="url(#mask0_922_59960)">
    <rect y="0.00390625" width="16" height="16" fill="#0067B1" />
  </g>
</svg>