<svg id="Layer_2" data-name="Layer 2"
    xmlns="http://www.w3.org/2000/svg" width="16" height="16" viewBox="0 0 16 16">
    <g id="invisible_box" data-name="invisible box" transform="translate(0 -0.006)">
        <rect id="Rectangle_443" data-name="Rectangle 443" width="16" height="16" transform="translate(0 0.006)" fill="none"/>
    </g>
    <g id="icons_Q2" data-name="icons Q2" transform="translate(0.196 0.189)">
        <path id="Tracé_312" data-name="Tracé 312" d="M9.336,2a7.3,7.3,0,1,0,5.2,2.139A7.336,7.336,0,0,0,9.336,2Zm0,13.338a6,6,0,1,1,6-6A6,6,0,0,1,9.336,15.338Z" transform="translate(-2 -2)"/>
        <path id="Tracé_313" data-name="Tracé 313" d="M22.667,35.375h-.133l-.133-.067h-.1l-.1-.1-.1-.1c0-.033-.033-.067-.067-.1s0-.1-.033-.133v-.267c.033-.033.033-.067.033-.133s.067-.067.067-.1l.1-.1a.634.634,0,0,1,.6-.2h.133l.1.067.1.1.1.1c0,.033.033.067.033.1a.253.253,0,0,0,.067.133v.267c-.033.033-.033.067-.067.133s-.033.067-.033.1l-.1.1-.1.1h-.1l-.133.067Z" transform="translate(-15.331 -23.37)"/>
        <path id="Tracé_314" data-name="Tracé 314" d="M18.134,16.677h-.267a.667.667,0,0,1-.367-.867,2.434,2.434,0,0,1,1.2-1.3,1.634,1.634,0,0,0-.367-3.134,1.642,1.642,0,0,0-2,1.6.667.667,0,1,1-1.334,0,3.023,3.023,0,0,1,3.6-2.9,2.968,2.968,0,0,1,.667,5.6,1.234,1.234,0,0,0-.534.567A.634.634,0,0,1,18.134,16.677Z" transform="translate(-10.665 -7.34)" />
    </g>
</svg>
