<svg width="12" height="16" viewBox="0 0 12 16" fill="none" xmlns="http://www.w3.org/2000/svg">
  <path fill-rule="evenodd" clip-rule="evenodd" d="M8.32533 0.741667L8.91699 1.33333H11.0003C11.4587 1.33333 11.8337 1.70833 11.8337 2.16667C11.8337 2.625 11.4587 3 11.0003 3H1.00033C0.541992 3 0.166992 2.625 0.166992 2.16667C0.166992 1.70833 0.541992 1.33333 1.00033 1.33333H3.08366L3.67533 0.741667C3.82533 0.591667 4.04199 0.5 4.25866 0.5H7.74199C7.95866 0.5 8.17533 0.591667 8.32533 0.741667ZM1.00033 13.8333C1.00033 14.75 1.75033 15.5 2.66699 15.5H9.33366C10.2503 15.5 11.0003 14.75 11.0003 13.8333V5.5C11.0003 4.58333 10.2503 3.83333 9.33366 3.83333H2.66699C1.75033 3.83333 1.00033 4.58333 1.00033 5.5V13.8333ZM3.64199 7.30833C3.96699 6.98333 4.49199 6.98333 4.81699 7.30833L6.00033 8.49167L7.18366 7.30833C7.50866 6.98333 8.03366 6.98333 8.35866 7.30833C8.68366 7.63333 8.68366 8.15833 8.35866 8.48333L7.17532 9.66667L8.35866 10.85C8.68366 11.175 8.68366 11.7 8.35866 12.025C8.03366 12.35 7.50866 12.35 7.18366 12.025L6.00033 10.8417L4.81699 12.025C4.49199 12.35 3.96699 12.35 3.64199 12.025C3.48595 11.8693 3.39825 11.6579 3.39825 11.4375C3.39825 11.2171 3.48595 11.0057 3.64199 10.85L4.82533 9.66667L3.64199 8.48333C3.31699 8.16667 3.31699 7.63333 3.64199 7.30833Z" fill="#545D69" />
</svg>